<?xml version="1.0" standalone="no"?>
<!DOCTYPE svg PUBLIC "-//W3C//DTD SVG 20010904//EN"
 "http://www.w3.org/TR/2001/REC-SVG-20010904/DTD/svg10.dtd">
<svg version="1.0" xmlns="http://www.w3.org/2000/svg"
 width="381.000000pt" height="114.000000pt" viewBox="0 0 381.000000 114.000000"
 preserveAspectRatio="xMidYMid meet">
<metadata>
Created by potrace 1.15, written by Peter Selinger 2001-2017
</metadata>
<g transform="translate(0.000000,114.000000) scale(0.100000,-0.100000)"
fill="#000000" stroke="none">
<path d="M1785 1038 c-11 -6 -40 -33 -66 -60 -30 -33 -53 -48 -70 -48 -14 0
-36 -10 -48 -22 -25 -23 -25 -34 -5 -229 8 -77 -15 -124 -56 -115 -16 3 -32 1
-35 -4 -10 -16 26 -40 60 -40 29 0 35 5 49 40 20 50 20 92 1 200 -19 107 -19
120 0 120 38 0 77 -33 101 -83 27 -60 30 -100 9 -141 -26 -50 -19 -104 25
-182 38 -70 63 -90 96 -77 23 9 16 23 -17 35 -23 8 -37 24 -55 62 -26 55 -29
82 -14 106 12 19 22 7 44 -51 22 -61 51 -91 84 -87 30 4 43 28 14 28 -32 0
-62 32 -72 75 -6 25 -5 75 1 134 10 88 9 96 -10 122 -32 43 -28 63 12 55 71
-13 137 -124 156 -262 11 -75 23 -92 121 -174 71 -60 84 -66 114 -54 23 9 20
24 -4 24 -28 0 -70 23 -96 52 -24 25 -68 108 -62 114 3 2 23 -23 46 -56 45
-63 100 -100 148 -100 22 0 25 2 14 15 -7 8 -22 15 -34 15 -41 0 -128 113
-146 191 -11 44 -10 52 5 69 9 10 30 22 47 25 16 4 32 14 35 23 3 10 11 24 18
32 7 8 15 23 18 33 6 15 3 16 -13 7 -32 -17 -50 -12 -50 15 0 25 -14 33 -25
15 -3 -5 -28 -12 -56 -16 -46 -6 -49 -8 -34 -24 16 -18 20 -50 6 -50 -4 0 -22
39 -40 88 -17 48 -43 105 -57 126 -39 56 -111 81 -159 54z"/>
<path d="M500 294 c-30 -12 -40 -38 -40 -109 0 -99 7 -105 138 -105 93 0 102
2 116 22 28 40 21 58 -23 58 -22 0 -41 -5 -43 -12 -4 -12 -87 -16 -106 -4 -13
8 -16 54 -6 80 8 22 102 23 110 1 4 -10 20 -15 46 -15 40 0 40 0 34 32 -3 18
-11 37 -17 43 -11 11 -184 18 -209 9z"/>
<path d="M802 195 c-28 -58 -52 -107 -52 -110 0 -12 79 -4 90 10 18 21 138 21
146 0 4 -10 20 -15 50 -15 l44 0 -55 110 -55 110 -58 0 -57 0 -53 -105z"/>
<path d="M1110 270 c0 -29 2 -30 45 -30 l45 0 0 -80 0 -80 40 0 40 0 0 80 0
80 45 0 c43 0 45 1 45 30 l0 30 -130 0 -130 0 0 -30z"/>
<path d="M1439 282 c-17 -14 -22 -28 -21 -57 1 -21 6 -43 12 -49 6 -6 45 -13
87 -16 48 -3 78 -10 81 -17 3 -9 -12 -13 -52 -13 -31 0 -56 5 -56 10 0 6 -18
10 -40 10 -44 0 -50 -11 -24 -48 14 -20 23 -22 119 -22 96 0 105 2 119 22 21
29 20 61 -2 87 -14 18 -31 23 -95 28 -88 7 -104 23 -22 23 30 0 55 -4 55 -10
0 -5 16 -10 35 -10 30 0 35 3 35 24 0 41 -34 56 -126 56 -65 0 -87 -4 -105
-18z"/>
<path d="M1773 290 c-18 -7 -23 -17 -23 -44 0 -18 -7 -46 -15 -62 -15 -29 -11
-68 8 -92 8 -10 42 -13 141 -11 72 2 137 7 144 12 18 14 15 35 -8 42 -14 4
-20 15 -20 36 0 26 -3 29 -34 29 -19 0 -36 -4 -38 -8 -1 -5 -27 2 -56 15 -29
14 -50 29 -47 34 8 12 72 12 80 -1 3 -5 22 -10 41 -10 29 0 34 3 34 25 0 14
-8 29 -19 35 -24 12 -157 12 -188 0z"/>
<path d="M2070 191 l0 -111 120 0 c150 0 160 7 160 104 0 48 -5 70 -19 87 -18
22 -27 24 -140 27 l-121 4 0 -111z"/>
<path d="M2442 290 c-12 -5 -27 -21 -32 -35 -15 -40 -12 -128 6 -153 14 -21
23 -22 129 -22 143 0 145 2 145 109 0 61 -4 82 -17 92 -19 17 -196 24 -231 9z"/>
<path d="M2770 287 c-18 -9 -27 -24 -32 -52 -10 -60 1 -134 23 -145 10 -6 65
-10 123 -10 123 0 136 7 136 76 l0 44 -75 0 c-73 0 -75 -1 -75 -25 0 -23 4
-25 43 -26 l42 -1 -36 -10 c-22 -5 -50 -6 -70 -1 -32 9 -34 12 -34 54 l0 44
63 3 c49 2 64 0 68 -13 4 -9 19 -15 41 -15 33 0 34 2 31 32 -2 23 -11 36 -28
45 -33 17 -187 17 -220 0z"/>
<path d="M3092 284 c-16 -11 -22 -25 -22 -52 0 -58 10 -65 96 -71 49 -4 79
-11 82 -18 3 -10 -12 -13 -52 -13 -31 0 -56 5 -56 10 0 6 -18 10 -41 10 -37 0
-40 -2 -33 -22 13 -45 22 -48 129 -48 114 0 135 10 135 67 0 47 -27 64 -114
70 -88 7 -103 23 -21 23 30 0 55 -4 55 -10 0 -5 16 -10 35 -10 30 0 35 3 35
24 0 41 -34 56 -125 56 -57 0 -87 -5 -103 -16z"/>
</g>
</svg>
